<?xml version="1.0" encoding="UTF-8" standalone="no"?>
<svg xmlns="http://www.w3.org/2000/svg" xmlns:xlink="http://www.w3.org/1999/xlink" viewBox="0 0 280 280">
 <defs>
  <ellipse id="path-1" cy="116" cx="116" rx="116" ry="116"/>
  <filter id="filter-2" height="200%" width="200%" y="-50%" x="-50%" filterUnits="objectBoundingBox">
   <feOffset in="SourceAlpha" result="shadowOffsetOuter1" dx="0" dy="2"/>
   <feGaussianBlur stdDeviation="12" result="shadowBlurOuter1" in="shadowOffsetOuter1"/>
   <feColorMatrix type="matrix" values="0 0 0 0 0   0 0 0 0 0   0 0 0 0 0  0 0 0 0.35 0" in="shadowBlurOuter1"/>
  </filter>
 </defs>
 <g id="Page-1" fill-rule="evenodd" fill="none">
  <g id="tute_inseries" transform="translate(-537 -452)">
   <g id="play42" transform="translate(561 474)">
    <g id="Oval-21" fill="#000">
     <use filter="url(#filter-2)" xlink:href="#path-1"/>
    </g>
    <g id="Group" fill="#fff" transform="translate(1 3)">
     <path id="Shape" d="m213.9 57.668c-10.21-17.498-24.07-31.353-41.57-41.566s-36.6-15.319-57.33-15.319c-20.72 0.0001-39.832 5.1057-57.33 15.319-17.5 10.211-31.355 24.066-41.568 41.566-10.215 17.5-15.321 36.612-15.321 57.332 0.00027 20.72 5.1077 39.83 15.319 57.33 10.213 17.5 24.068 31.36 41.568 41.57s36.61 15.32 57.332 15.32c20.72 0 39.83-5.11 57.33-15.32s31.36-24.07 41.57-41.57 15.32-36.61 15.32-57.33c0-20.722-5.11-39.834-15.32-57.332zm-11.86 107.65c-9.02 15.46-21.26 27.7-36.72 36.73-15.46 9.02-32.34 13.53-50.64 13.53-18.297 0-35.176-4.51-50.634-13.53-15.456-9.03-27.697-21.27-36.724-36.73-9.029-15.46-13.541-32.33-13.541-50.64 0-18.297 4.515-35.176 13.541-50.632 9.025-15.456 21.268-27.699 36.724-36.726s32.335-13.539 50.634-13.539c18.3 0 35.18 4.512 50.64 13.539s27.7 21.27 36.72 36.726c9.03 15.456 13.54 32.335 13.54 50.632 0 18.31-4.51 35.18-13.54 50.64z"/>
     <polygon id="Triangle-1" points="127 74.576 170.79 159.01 83.208 159.01" transform="translate(127 116.79) rotate(90) translate(-127 -116.79)"/>
    </g>
   </g>
  </g>
 </g>
</svg>
